<svg version="1" xmlns="http://www.w3.org/2000/svg" width="346.667" height="346.667" viewBox="0 0 260.000000 260.000000"><path d="M116.9.4c-.2.2-2.2.6-4.4.9-16.5 2.3-25.8 5.2-42 13.2-28.8 14.3-53.8 43.5-64 75-4.7 14.5-6 23-6 40.5 0 15.8.7 21.5 4 33.6 13.3 49.6 54.1 86.3 105.5 94.9 12.9 2.2 35.7 1.3 49-1.8 30.5-7.2 55.8-23.6 74.7-48.6 7.6-9.9 15.7-25.3 19.6-37.1 2.3-6.9 3-9.7 5.6-23.5.6-2.8.8-12 .6-20.5-.4-17.8-2.9-30.5-8.8-45.3C237.2 48.4 211 22.3 177.5 9 163.6 3.5 150.4.9 132.9.4c-8.5-.3-15.7-.3-16 0zm37.4 9.2c15 3 30.1 9.2 43.4 18C206 33.1 220.4 45.9 224 51l1.9 2.7-9.8 2c-9.7 1.9-9.9 1.9-12.5 0-4.8-3.5-31-16.3-38.4-18.7-6.8-2.2-7.6-2.7-11.6-8.4-2.4-3.4-7.6-9.3-11.5-13.3-4.4-4.4-6.7-7.3-5.9-7.6 1.8-.6 8.7.1 18.1 1.9zm-15.6 7.6c7.6 7.5 16.3 18.4 15.2 19.1-5.2 3.3-21.9 19.2-29.1 27.6l-3.6 4.3-8.9.3c-18.4.8-34.9 2.8-46.9 5.9l-5.1 1.3-4.5-7.1c-2.5-3.9-5.4-9.2-6.6-11.8L47.1 52l4.1-5.2c6.3-8.1 26.1-27.4 30.5-29.6 4.1-2.1 18-6.5 25.3-8 2.5-.5 8.7-.8 13.9-.6l9.5.3 8.3 8.3zm-80.3 16c-3.9 4-9 9.9-11.3 13-2.3 3.1-6.6 7.2-9.4 9-2.9 1.8-5.4 3.5-5.7 3.8-.3.3-1.4 1.2-2.4 2-1.8 1.3-1.9 1.3-1.1 0 4.2-7.3 21.8-25.4 30.5-31.3 3-2 5.7-3.7 5.9-3.7.2 0-2.7 3.3-6.5 7.2zm174.4 29.5c9.6 14.4 15.9 31.4 19 51.3.9 5.5.8 29.6-.1 33-.4 1.7-2.5 3.5-6.5 5.7-3.3 1.8-6.2 3.3-6.4 3.3-.3 0-1.5-2.4-2.9-5.3-3.4-7.5-11.5-19.9-19.1-29.4-3.7-4.5-6.4-8.4-6.1-8.7 1.2-1.2 1.1-40.1-.1-45.9-1.4-6.7-2-6.1 7.9-8.1 10.4-2 10.1-2.1 14.3 4.1zM126.7 82.2c3.7 5.7 7.2 10.7 7.6 11.3.4.5 3.7 5.3 7.4 10.5 3.6 5.2 8 11.6 9.9 14.1l3.3 4.5-3.1 9c-6.2 18-25 51.3-29.1 51.6-1.2 0-3.3.2-4.7.4-16.5 1.7-45.7 1.9-47.6.3-6.3-5.2-33.8-49.2-31.9-51.1.2-.2.6-1.5.8-2.9 2.1-11.6 11.3-34.4 18-44.6 4-6 4.2-6.2 10.6-7.7 11-2.5 15.2-3.2 26.1-4.2 3.6-.3 6.6-.7 6.7-.8.1 0 4.4-.2 9.7-.4l9.5-.3 6.8 10.3zm89 43.8c8.5 10.9 16.7 24.4 18.4 30 .9 3 .7 4.8-1.6 11.5-3.1 9.4-10 24.2-15 32.5-3.2 5.2-4.4 6.2-10.8 9.3-15.3 7.4-26.5 10.6-39.7 11.4l-8.6.6-6.2-6.8c-3.4-3.7-7.8-9.1-9.7-11.9-1.9-2.8-5.7-8.2-8.4-12-2.8-3.9-4.8-7.2-4.7-7.5.2-.3 3.1-5.2 6.5-10.9 7.5-12.5 14.9-27.6 19.5-39.7l3.3-9 4.8-.7c2.6-.4 7.5-1 10.9-1.3 7.6-.8 28.9-4.5 29.5-5.1 1.8-1.8 4.9.7 11.8 9.6zM25 132.5c4.7.4 8.9 1.2 9.3 1.8.5.7 3.5 6.1 6.8 12.2 3.3 6 6.9 12.6 8 14.5 2.1 3.5 13.8 20 14.9 21 3 2.6 6 7.5 5.5 9-1.1 3.5-1.5 8.7-1.5 20.3-.1 8.9-.4 11.7-1.3 11.3-.7-.2-3.4-1.2-6.2-2.2-2.7-.9-9.5-4-15-6.8-9.1-4.6-10.5-5.7-15.3-12.1-9.8-13.2-19.6-36.5-20.9-50-.3-3.4 0-9.3.6-13.2 1.2-6.9 1.3-7.1 3.9-6.8 1.5.2 6.5.6 11.2 1zm188.9 82.4l2.1 2.9-4.7 4.2c-12.5 11.1-29.7 20.7-45.3 25.3-11.9 3.6-15.5 4.2-29 5.3-7.2.6-7.6.5-10-2.1-2.4-2.6-2.4-2.8-.6-3.9 6.2-3.7 13.1-8.8 20.6-15l8.5-7.1 8-.1c11.3-.1 17.8-1.4 31.1-6 3.9-1.3 8.8-3.3 11-4.4 5.2-2.6 5.9-2.5 8.3.9zm-153.1 9.4c5 1.9 11.2 5 13.9 6.9 2.6 2 7.1 4.7 9.8 6.1 6.2 3.1 22.2 8.3 29.5 9.7 3.4.6 6.4 1.9 7.8 3.3l2.3 2.3-3.8-.2C95.1 250.8 67.1 238.9 49 222l-5.5-5.1 4.1 2c2.3 1.1 8.2 3.5 13.2 5.4z"/></svg>